# xmcd
#
# Track frame offsets:
#	182
#	20045
#	51182
#	68495
#	88157
#	115820
#	142670
#
# Disc length: 2301 seconds
#
# Revision: 1
# Processed by: cddbd v1.5.1PL2 Copyright (c) Steve Scherf et al.
# Submitted via: audiograbber 1.83.01
#
DISCID=5608fb07
DTITLE=Johnny 'Big Moose' Walker - Swear To Tell The Truth
DYEAR=1900
DGENRE=Blues
TTITLE0=Rambling Woman
TTITLE1=Burying Ground
TTITLE2=Swear To Tell The Truth
TTITLE3=Drink Too Much
TTITLE4=Lord Have Mercy
TTITLE5=Every Night
TTITLE6=Annielee
EXTD=
EXTT0=
EXTT1=
EXTT2=
EXTT3=
EXTT4=
EXTT5=
EXTT6=
PLAYORDER=
